# xmcd
#
# Track frame offsets:
# 150
# 13414
# 26166
# 37580
# 49267
# 62190
# 74450
# 86411
# 98637
# 110956
# 123323
# 135713
# 148428
# 162005
# 174500
# 185530
# 198121
# 210980
# 223655
# 236770
#
# Disc length: 3302 seconds
#
#
# Revision: 0
# Processed by: cddbd v1.5.2PL0 Copyright (c) Steve Scherf et al.
# Submitted via: FreeRIP 2.96 
#
DISCID=280ce414
DTITLE=Hank Williams - Legends of Country Music - CD3
DYEAR=2008
DGENRE=Country
TTITLE0=Wedding Bells
TTITLE1=Pan American
TTITLE2=Nobody's Lonesome For Me
TTITLE3=I'm Satisfied With You
TTITLE4=I Can't Get You Off Of My Mind
TTITLE5=The Blues Come Around
TTITLE6=I'll Be A Bachelor 'Til I Die
TTITLE7=Never Again (Will I Knock On Your Door)
TTITLE8=Last Night I Heard You Crying In Your Sleep
TTITLE9=Fly Trouble
TTITLE10=My Sweet Love Ain't Around
TTITLE11=There'll Be No Teardrops Tonight
TTITLE12=I'd Still Want You
TTITLE13=I Could Never Be Ashamed Of You
TTITLE14=My Heart Would Know
TTITLE15=Six More Miles (To The Graveyard)
TTITLE16=May You Never Be Alone
TTITLE17=I Don't Care (If Tomorrow Never Comes)
TTITLE18=A House Without Love
TTITLE19=Weary Blues From Waitin'
EXTD=
EXTT0=
EXTT1=
EXTT2=
EXTT3=
EXTT4=
EXTT5=
EXTT6=
EXTT7=
EXTT8=
EXTT9=
EXTT10=
EXTT11=
EXTT12=
EXTT13=
EXTT14=
EXTT15=
EXTT16=
EXTT17=
EXTT18=
EXTT19=
PLAYORDER=
